General
Complete name                            : Winnie the Pooh [2011] 720p BRRip H264 AAC - CODY.mp4
Format                                   : MPEG-4
Format profile                           : Base Media
Codec ID                                 : isom
File size                                : 1.07 GiB
Duration                                 : 1h 3mn
Overall bit rate mode                    : Variable
Overall bit rate                         : 2 418 Kbps
Encoded date                             : UTC 2011-10-20 11:23:58
Tagged date                              : UTC 2011-10-20 11:23:58

Video
ID                                       : 1
Format                                   : AVC
Format/Info                              : Advanced Video Codec
Format profile                           : High@L4.1
Format settings, CABAC                   : Yes
Format settings, ReFrames                : 4 frames
Codec ID                                 : avc1
Codec ID/Info                            : Advanced Video Coding
Duration                                 : 1h 3mn
Bit rate                                 : 2 100 Kbps
Maximum bit rate                         : 13.2 Mbps
Width                                    : 1 280 pixels
Height                                   : 720 pixels
Display aspect ratio                     : 16:9
Frame rate mode                          : Constant
Frame rate                               : 23.976 fps
Color space                              : YUV
Chroma subsampling                       : 4:2:0
Bit depth                                : 8 bits
Scan type                                : Progressive
Bits/(Pixel*Frame)                       : 0.095
Stream size                              : 947 MiB (87%)
Writing library                          : x264 core 118 r2085 8a62835
Encoding settings                        : cabac=1 / ref=2 / deblock=1:0:0 / analyse=0x3:0x113 /
 me=umh / subme=8 / psy=1 / psy_rd=1.00:0.00 / mixed_ref=1 / me_range=16 / chroma_me=1 / 
trellis=2 / 8x8dct=1 / cqm=0 / deadzone=21,11 / fast_pskip=0 / chroma_qp_offset=-4 / threads=12 / 
sliced_threads=0 / nr=0 / decimate=1 / interlaced=0 / bluray_compat=0 / constrained_intra=0 / 
bframes=3 / b_pyramid=2 / b_adapt=2 / b_bias=0 / direct=3 / weightb=1 / open_gop=0 / weightp=2 /
 keyint=250 / keyint_min=23 / scenecut=40 / intra_refresh=0 / rc_lookahead=50 / rc=2pass / mbtree=1 /
 bitrate=2100 / ratetol=1.0 / qcomp=0.60 / qpmin=10 / qpmax=51 / qpstep=4 / cplxblur=20.0 / 
qblur=0.5 / vbv_maxrate=25000 / vbv_bufsize=25000 / nal_hrd=none / ip_ratio=1.40 / aq=1:1.00
Encoded date                             : UTC 2011-10-20 11:23:58
Tagged date                              : UTC 2011-10-20 11:24:38

Audio
ID                                       : 2
Format                                   : AAC
Format/Info                              : Advanced Audio Codec
Format profile                           : LC
Codec ID                                 : 40
Duration                                 : 1h 3mn
Bit rate mode                            : Variable
Bit rate                                 : 314 Kbps
Maximum bit rate                         : 420 Kbps
Channel(s)                               : 6 channels
Channel positions                        : Front: L C R, Side: L R, LFE
Sampling rate                            : 48.0 KHz
Compression mode                         : Lossy
Stream size                              : 142 MiB (13%)
Encoded date                             : UTC 2011-10-20 11:24:19
Tagged date                              : UTC 2011-10-20 11:24:38



IMDB link:                                 http://www.imdb.com/title/tt1449283/



Subtitles included                       : English, Dutch



Please seed at least 1,5:1. This way this torrent has a chance to survive !




Thanks. ENJOY !

